<?xml version="1.0" standalone="no"?>
<svg xmlns:xlink="http://www.w3.org/1999/xlink" id="wave" style="transform:rotate(180deg); transition: 0.3s" viewBox="0 0 1440 100" version="1.1" xmlns="http://www.w3.org/2000/svg"><defs><linearGradient id="sw-gradient-0" x1="0" x2="0" y1="1" y2="0"><stop stop-color="rgba(245, 219, 248, 1)" offset="0%"/><stop stop-color="rgba(245, 219, 248, 1)" offset="100%"/></linearGradient></defs><path style="transform:translate(0, 0px); opacity:1" fill="url(#sw-gradient-0)" d="M0,60L40,53.3C80,47,160,33,240,23.3C320,13,400,7,480,13.3C560,20,640,40,720,53.3C800,67,880,73,960,65C1040,57,1120,33,1200,28.3C1280,23,1360,37,1440,36.7C1520,37,1600,23,1680,18.3C1760,13,1840,17,1920,18.3C2000,20,2080,20,2160,18.3C2240,17,2320,13,2400,16.7C2480,20,2560,30,2640,36.7C2720,43,2800,47,2880,40C2960,33,3040,17,3120,15C3200,13,3280,27,3360,36.7C3440,47,3520,53,3600,55C3680,57,3760,53,3840,58.3C3920,63,4000,77,4080,73.3C4160,70,4240,50,4320,35C4400,20,4480,10,4560,8.3C4640,7,4720,13,4800,13.3C4880,13,4960,7,5040,3.3C5120,0,5200,0,5280,0C5360,0,5440,0,5520,6.7C5600,13,5680,27,5720,33.3L5760,40L5760,100L5720,100C5680,100,5600,100,5520,100C5440,100,5360,100,5280,100C5200,100,5120,100,5040,100C4960,100,4880,100,4800,100C4720,100,4640,100,4560,100C4480,100,4400,100,4320,100C4240,100,4160,100,4080,100C4000,100,3920,100,3840,100C3760,100,3680,100,3600,100C3520,100,3440,100,3360,100C3280,100,3200,100,3120,100C3040,100,2960,100,2880,100C2800,100,2720,100,2640,100C2560,100,2480,100,2400,100C2320,100,2240,100,2160,100C2080,100,2000,100,1920,100C1840,100,1760,100,1680,100C1600,100,1520,100,1440,100C1360,100,1280,100,1200,100C1120,100,1040,100,960,100C880,100,800,100,720,100C640,100,560,100,480,100C400,100,320,100,240,100C160,100,80,100,40,100L0,100Z"/></svg>